<svg width="100" height="147" viewBox="0 0 100 147" fill="none" xmlns="http://www.w3.org/2000/svg">
<path d="M26.2713 6.93627C26.7387 4.94258 30.9606 3.43923 34.8036 2.46584C40.2127 1.09552 46.6156 0.315131 46.6769 0.307861L47.2204 0.329669C46.9759 0.359111 18.204 3.91975 30.1337 10.5031C35.7292 13.5912 43.024 16.7164 50.7798 20.039C82.5548 33.6516 112.213 46.3585 67.1683 72.1869L64.4678 71.6017C109.731 46.2541 80.7202 33.6382 49.5569 20.084C41.8954 16.752 34.6915 13.6188 29.1882 10.5223C26.7859 9.17057 26.0276 7.97472 26.2713 6.93627Z" fill="url(#paint0_linear_68_26)"/>
<path d="M8.72281 6.93627C10.6012 4.94258 15.8873 3.43923 20.4195 2.46584C26.7984 1.09552 33.7537 0.315131 33.8203 0.307861L34.3487 0.329669C34.0839 0.359111 2.79184 3.91975 10.0619 10.5031C13.4719 13.5912 18.5548 16.7164 23.959 20.039C46.0998 33.652 66.767 46.3581 3.43883 72.1869L1.15222 71.6017C64.3541 46.2541 44.2745 33.6382 22.704 20.084C17.401 16.752 12.4147 13.6188 9.10256 10.5227C7.65667 9.17057 7.74481 7.97472 8.72281 6.93627Z" fill="url(#paint1_linear_68_26)"/>
<path d="M38.941 0.472152C39.7492 0.365653 40.2439 0.308225 40.2488 0.307861L40.7845 0.329669C40.7796 0.330396 40.2935 0.387098 39.4958 0.492507L38.941 0.472152Z" fill="url(#paint2_linear_68_26)"/>
<path d="M17.4692 6.93161H18.3095C18.1812 7.16532 18.1032 7.40631 18.0788 7.64766L17.2133 7.65129C17.2458 7.40813 17.3323 7.16641 17.4692 6.93161ZM18.0175 6.25154C18.2409 6.03527 18.5134 5.81899 18.827 5.6089L19.6169 5.61436C19.3115 5.82372 19.0471 6.03926 18.8318 6.25444L18.0175 6.25154ZM17.2828 8.41206L18.1735 8.40478C18.2641 8.66613 18.4176 8.93547 18.6312 9.20517L17.7149 9.2168C17.5098 8.94564 17.3648 8.67485 17.2828 8.41206ZM19.8704 5.00153C20.2477 4.80816 20.6689 4.61479 21.1209 4.42724L21.8621 4.43705C21.4182 4.62388 21.0051 4.81652 20.636 5.00916L19.8704 5.00153ZM18.5488 10.0673L19.489 10.0506C19.6722 10.1993 19.8744 10.3501 20.0978 10.5028C20.3123 10.65 20.5308 10.7976 20.7545 10.9455L19.7883 10.9662C19.5694 10.8179 19.3558 10.67 19.1454 10.5224C18.9265 10.3687 18.7275 10.2171 18.5488 10.0673ZM22.5562 3.8842C23.0542 3.71118 23.5931 3.53853 24.1568 3.3706L24.853 3.38369C24.297 3.55089 23.7653 3.72318 23.2751 3.89546L22.5562 3.8842ZM21.2427 11.9211L22.2378 11.8978C22.7796 12.2348 23.3393 12.5732 23.9156 12.913L22.8905 12.9388C22.3239 12.5982 21.7744 12.2588 21.2427 11.9211ZM25.9045 2.88499C26.5036 2.72942 27.1372 2.57458 27.7862 2.42519L28.4401 2.44046C27.7976 2.58948 27.1713 2.7436 26.5791 2.89917L25.9045 2.88499ZM24.7437 14.026L25.8017 13.9973C26.4881 14.3829 27.1924 14.77 27.9109 15.1586L26.8183 15.1906C26.1104 14.8009 25.4179 14.4127 24.7437 14.026ZM29.7897 1.99011C30.4704 1.85017 31.1824 1.71168 31.9065 1.57829L32.5206 1.59537C31.8034 1.72877 31.0979 1.86689 30.4237 2.00646L29.7897 1.99011ZM29.1281 16.4409L30.2584 16.4053C31.1097 16.8509 31.976 17.2988 32.8541 17.748L31.6844 17.7873C30.8193 17.3366 29.9664 16.888 29.1281 16.4409ZM34.4929 19.2419L35.7069 19.199L38.8224 20.7725L37.5605 20.8194L34.4929 19.2419ZM34.1322 1.18864C34.8999 1.06105 35.6866 0.937109 36.4708 0.820068L37.0468 0.83897C36.2686 0.95601 35.4884 1.07959 34.7272 1.20681L34.1322 1.18864ZM40.8783 22.5376L42.1935 22.4874C43.4062 23.1093 44.6133 23.7349 45.8037 24.3648L44.4285 24.4179C43.2588 23.7869 42.0724 23.1606 40.8783 22.5376ZM51.8086 61.3608C54.9773 59.2915 57.5795 57.2898 59.5843 55.4041L61.9976 55.6494C60.0233 57.5722 57.4451 59.6146 54.2918 61.7268L51.8086 61.3608ZM48.1683 26.4868L49.6113 26.4319C51.0333 27.2265 52.3236 27.9774 53.5477 28.724L52.0234 28.7782C50.8257 28.0319 49.5614 27.2813 48.1683 26.4868ZM63.9634 50.0675C64.8784 48.4536 65.3841 46.8572 65.4937 45.323L67.6536 45.3924C67.5955 46.9503 67.1374 48.5721 66.265 50.2136L63.9634 50.0675ZM55.8721 31.3334L57.491 31.2832C58.8768 32.249 60.1427 33.2191 61.2438 34.1635L59.5132 34.2027C58.4487 33.2624 57.2197 32.2959 55.8721 31.3334ZM62.6442 37.4468L64.506 37.4279C65.5238 38.6575 66.3052 39.8901 66.8381 41.1481L64.8313 41.1324C64.3439 39.8864 63.6133 38.6659 62.6442 37.4468Z" fill="url(#paint3_linear_68_26)"/>
<path d="M32.811 71.6017C35.4356 70.375 37.8907 69.1751 40.1201 68.0342L42.6215 68.5412C40.3926 69.7069 37.933 70.9326 35.3048 72.1866L32.811 71.6017Z" fill="url(#paint4_linear_68_26)"/>
<path d="M20.0929 139V125H25.8529C27.0929 125 28.1529 125.2 29.0329 125.6C29.9262 126 30.6129 126.573 31.0929 127.32C31.5729 128.067 31.8129 128.953 31.8129 129.98C31.8129 131.007 31.5729 131.893 31.0929 132.64C30.6129 133.373 29.9262 133.94 29.0329 134.34C28.1529 134.727 27.0929 134.92 25.8529 134.92H21.5329L22.6929 133.74V139H20.0929ZM29.2529 139L25.7129 133.92H28.4929L32.0529 139H29.2529ZM22.6929 134.02L21.5329 132.78H25.7329C26.8796 132.78 27.7396 132.533 28.3129 132.04C28.8996 131.547 29.1929 130.86 29.1929 129.98C29.1929 129.087 28.8996 128.4 28.3129 127.92C27.7396 127.44 26.8796 127.2 25.7329 127.2H21.5329L22.6929 125.92V134.02ZM39.2818 139.14C38.1885 139.14 37.2151 138.907 36.3618 138.44C35.5085 137.96 34.8351 137.307 34.3418 136.48C33.8485 135.653 33.6018 134.713 33.6018 133.66C33.6018 132.593 33.8485 131.653 34.3418 130.84C34.8351 130.013 35.5085 129.367 36.3618 128.9C37.2151 128.433 38.1885 128.2 39.2818 128.2C40.3885 128.2 41.3685 128.433 42.2218 128.9C43.0885 129.367 43.7618 130.007 44.2418 130.82C44.7351 131.633 44.9818 132.58 44.9818 133.66C44.9818 134.713 44.7351 135.653 44.2418 136.48C43.7618 137.307 43.0885 137.96 42.2218 138.44C41.3685 138.907 40.3885 139.14 39.2818 139.14ZM39.2818 137C39.8951 137 40.4418 136.867 40.9218 136.6C41.4018 136.333 41.7751 135.947 42.0418 135.44C42.3218 134.933 42.4618 134.34 42.4618 133.66C42.4618 132.967 42.3218 132.373 42.0418 131.88C41.7751 131.373 41.4018 130.987 40.9218 130.72C40.4418 130.453 39.9018 130.32 39.3018 130.32C38.6885 130.32 38.1418 130.453 37.6618 130.72C37.1951 130.987 36.8218 131.373 36.5418 131.88C36.2618 132.373 36.1218 132.967 36.1218 133.66C36.1218 134.34 36.2618 134.933 36.5418 135.44C36.8218 135.947 37.1951 136.333 37.6618 136.6C38.1418 136.867 38.6818 137 39.2818 137ZM53.8157 139V136.84L53.6757 136.38V132.6C53.6757 131.867 53.4557 131.3 53.0157 130.9C52.5757 130.487 51.909 130.28 51.0157 130.28C50.4157 130.28 49.8224 130.373 49.2357 130.56C48.6624 130.747 48.1757 131.007 47.7757 131.34L46.7957 129.52C47.369 129.08 48.049 128.753 48.8357 128.54C49.6357 128.313 50.4624 128.2 51.3157 128.2C52.8624 128.2 54.0557 128.573 54.8957 129.32C55.749 130.053 56.1757 131.193 56.1757 132.74V139H53.8157ZM50.4557 139.14C49.6557 139.14 48.9557 139.007 48.3557 138.74C47.7557 138.46 47.289 138.08 46.9557 137.6C46.6357 137.107 46.4757 136.553 46.4757 135.94C46.4757 135.34 46.6157 134.8 46.8957 134.32C47.189 133.84 47.6624 133.46 48.3157 133.18C48.969 132.9 49.8357 132.76 50.9157 132.76H54.0157V134.42H51.0957C50.2424 134.42 49.669 134.56 49.3757 134.84C49.0824 135.107 48.9357 135.44 48.9357 135.84C48.9357 136.293 49.1157 136.653 49.4757 136.92C49.8357 137.187 50.3357 137.32 50.9757 137.32C51.589 137.32 52.1357 137.18 52.6157 136.9C53.109 136.62 53.4624 136.207 53.6757 135.66L54.0957 137.16C53.8557 137.787 53.4224 138.273 52.7957 138.62C52.1824 138.967 51.4024 139.14 50.4557 139.14ZM63.9237 139.14C62.897 139.14 61.9703 138.913 61.1437 138.46C60.3303 137.993 59.6903 137.353 59.2237 136.54C58.757 135.727 58.5237 134.767 58.5237 133.66C58.5237 132.553 58.757 131.593 59.2237 130.78C59.6903 129.967 60.3303 129.333 61.1437 128.88C61.9703 128.427 62.897 128.2 63.9237 128.2C64.817 128.2 65.617 128.4 66.3237 128.8C67.0303 129.187 67.5903 129.78 68.0037 130.58C68.417 131.38 68.6237 132.407 68.6237 133.66C68.6237 134.9 68.4237 135.927 68.0237 136.74C67.6237 137.54 67.0703 138.14 66.3637 138.54C65.657 138.94 64.8437 139.14 63.9237 139.14ZM64.2237 137C64.8237 137 65.357 136.867 65.8237 136.6C66.3037 136.333 66.6837 135.947 66.9637 135.44C67.257 134.933 67.4037 134.34 67.4037 133.66C67.4037 132.967 67.257 132.373 66.9637 131.88C66.6837 131.373 66.3037 130.987 65.8237 130.72C65.357 130.453 64.8237 130.32 64.2237 130.32C63.6237 130.32 63.0837 130.453 62.6037 130.72C62.137 130.987 61.757 131.373 61.4637 131.88C61.1837 132.373 61.0437 132.967 61.0437 133.66C61.0437 134.34 61.1837 134.933 61.4637 135.44C61.757 135.947 62.137 136.333 62.6037 136.6C63.0837 136.867 63.6237 137 64.2237 137ZM67.4637 139V136.48L67.5637 133.64L67.3637 130.8V124.16H69.8437V139H67.4637ZM76.4341 139.14C75.5408 139.14 74.6808 139.027 73.8541 138.8C73.0408 138.56 72.3941 138.273 71.9141 137.94L72.8741 136.04C73.3541 136.347 73.9275 136.6 74.5941 136.8C75.2608 137 75.9275 137.1 76.5941 137.1C77.3808 137.1 77.9475 136.993 78.2941 136.78C78.6541 136.567 78.8341 136.28 78.8341 135.92C78.8341 135.627 78.7141 135.407 78.4741 135.26C78.2341 135.1 77.9208 134.98 77.5341 134.9C77.1475 134.82 76.7141 134.747 76.2341 134.68C75.7675 134.613 75.2941 134.527 74.8141 134.42C74.3475 134.3 73.9208 134.133 73.5341 133.92C73.1475 133.693 72.8341 133.393 72.5941 133.02C72.3541 132.647 72.2341 132.153 72.2341 131.54C72.2341 130.86 72.4275 130.273 72.8141 129.78C73.2008 129.273 73.7408 128.887 74.4341 128.62C75.1408 128.34 75.9741 128.2 76.9341 128.2C77.6541 128.2 78.3808 128.28 79.1141 128.44C79.8475 128.6 80.4541 128.827 80.9341 129.12L79.9741 131.02C79.4675 130.713 78.9541 130.507 78.4341 130.4C77.9275 130.28 77.4208 130.22 76.9141 130.22C76.1541 130.22 75.5875 130.333 75.2141 130.56C74.8541 130.787 74.6741 131.073 74.6741 131.42C74.6741 131.74 74.7941 131.98 75.0341 132.14C75.2741 132.3 75.5875 132.427 75.9741 132.52C76.3608 132.613 76.7875 132.693 77.2541 132.76C77.7341 132.813 78.2075 132.9 78.6741 133.02C79.1408 133.14 79.5675 133.307 79.9541 133.52C80.3541 133.72 80.6741 134.007 80.9141 134.38C81.1541 134.753 81.2741 135.24 81.2741 135.84C81.2741 136.507 81.0741 137.087 80.6741 137.58C80.2875 138.073 79.7341 138.46 79.0141 138.74C78.2941 139.007 77.4341 139.14 76.4341 139.14Z" fill="white"/>
<defs>
<linearGradient id="paint0_linear_68_26" x1="58.197" y1="23.9949" x2="58.197" y2="-0.721075" gradientUnits="userSpaceOnUse">
<stop stop-color="white"/>
<stop offset="0.297" stop-color="#FBFDFD"/>
<stop offset="0.5773" stop-color="#F0F6F7"/>
<stop offset="0.85" stop-color="#DDECED"/>
<stop offset="1" stop-color="#CFE4E6"/>
</linearGradient>
<linearGradient id="paint1_linear_68_26" x1="23.4509" y1="23.9949" x2="23.4509" y2="-0.721075" gradientUnits="userSpaceOnUse">
<stop stop-color="white"/>
<stop offset="0.297" stop-color="#FBFDFD"/>
<stop offset="0.5773" stop-color="#F0F6F7"/>
<stop offset="0.85" stop-color="#DDECED"/>
<stop offset="1" stop-color="#CFE4E6"/>
</linearGradient>
<linearGradient id="paint2_linear_68_26" x1="39.8627" y1="23.9948" x2="39.8627" y2="-0.721066" gradientUnits="userSpaceOnUse">
<stop stop-color="white"/>
<stop offset="0.297" stop-color="#FBFDFD"/>
<stop offset="0.5773" stop-color="#F0F6F7"/>
<stop offset="0.85" stop-color="#DDECED"/>
<stop offset="1" stop-color="#CFE4E6"/>
</linearGradient>
<linearGradient id="paint3_linear_68_26" x1="42.4332" y1="23.9949" x2="42.4332" y2="-0.721011" gradientUnits="userSpaceOnUse">
<stop stop-color="white"/>
<stop offset="0.297" stop-color="#FBFDFD"/>
<stop offset="0.5773" stop-color="#F0F6F7"/>
<stop offset="0.85" stop-color="#DDECED"/>
<stop offset="1" stop-color="#CFE4E6"/>
</linearGradient>
<linearGradient id="paint4_linear_68_26" x1="37.7162" y1="23.9952" x2="37.7162" y2="-0.720672" gradientUnits="userSpaceOnUse">
<stop stop-color="white"/>
<stop offset="0.297" stop-color="#FBFDFD"/>
<stop offset="0.5773" stop-color="#F0F6F7"/>
<stop offset="0.85" stop-color="#DDECED"/>
<stop offset="1" stop-color="#CFE4E6"/>
</linearGradient>
</defs>
</svg>
