<svg width="109" height="100" viewBox="0 0 109 100" fill="none" xmlns="http://www.w3.org/2000/svg">
<path d="M106.967 35L96.8016 22.5063C96.4051 22.0156 95.9341 21.5906 95.4462 21.1844V6.25C95.4462 2.8 92.4102 0 88.6693 0H20.9004C17.1562 0 14.1235 2.8 14.1235 6.25V21.1875C13.6356 21.5906 13.1646 22.0125 12.7682 22.5L2.60622 34.9969C1.2915 36.6094 0.569763 38.6062 0.569763 40.625V43.75C0.569763 48.9188 5.13061 53.125 10.7351 53.125V93.75C10.7351 97.2 13.7711 100 17.512 100H92.0578C95.7986 100 98.8347 97.2 98.8347 93.75V53.125C104.439 53.125 109 48.9188 109 43.75V40.625C109 38.6062 108.278 36.6094 106.967 35ZM88.6693 6.25V18.75H20.9004V6.25H88.6693ZM35.1082 46.875H20.914L34.4678 25H41.8851L35.1082 46.875ZM45.4124 25H53.0907V46.875H38.6356L45.4124 25ZM56.4791 25H64.1573L70.9342 46.875H56.4791V25ZM67.6779 25H75.0952L88.649 46.875H74.4548L67.6779 25ZM7.34665 43.75V40.625C7.34665 39.9469 7.58384 39.2906 8.02434 38.75L18.1897 26.25C18.8301 25.4625 19.8331 25 20.9004 25H30.5643L17.0105 46.875H10.7351C8.86468 46.875 7.34665 45.4781 7.34665 43.75ZM68.3387 93.75H42.9253V62.5H68.3387V93.75ZM92.0578 93.75H71.7271V62.5C71.7271 60.7719 70.2057 59.375 68.3387 59.375H42.9253C41.0549 59.375 39.5369 60.7719 39.5369 62.5V93.75H17.512V53.125H92.0578V93.75ZM102.223 43.75C102.223 45.4781 100.708 46.875 98.8347 46.875H92.5525L78.9987 25H88.6693C89.7333 25 90.7397 25.4625 91.3767 26.25L101.542 38.75C101.986 39.2906 102.223 39.9469 102.223 40.625V43.75Z" fill="white"/>
</svg>
