<svg width="29" height="26" viewBox="0 0 29 26" fill="none" xmlns="http://www.w3.org/2000/svg">
<path d="M0.150909 2.05263C0.150909 0.916842 0.931247 0 1.89793 0H20.5329C21.4995 0 22.2799 0.916842 22.2799 2.05263C22.2799 3.18842 21.4995 4.10526 20.5329 4.10526H1.89793C0.931247 4.10526 0.150909 3.18842 0.150909 2.05263ZM20.5329 21.8947H1.89793C0.931247 21.8947 0.150909 22.8116 0.150909 23.9474C0.150909 25.0832 0.931247 26 1.89793 26H20.5329C21.4995 26 22.2799 25.0832 22.2799 23.9474C22.2799 22.8116 21.4995 21.8947 20.5329 21.8947ZM26.3563 10.9474H7.72135C6.75466 10.9474 5.97432 11.8642 5.97432 13C5.97432 14.1358 6.75466 15.0526 7.72135 15.0526H26.3563C27.323 15.0526 28.1033 14.1358 28.1033 13C28.1033 11.8642 27.323 10.9474 26.3563 10.9474Z" fill="#DDECED"/>
</svg>
