<svg width="20" height="20" viewBox="0 0 20 20" fill="none" xmlns="http://www.w3.org/2000/svg">
<path d="M20 6.66667V1.66667C20 0.7475 19.2525 0 18.3333 0H13.3333V0.833333H18.3333C18.3608 0.833333 18.3833 0.846667 18.41 0.849167L9.93417 9.32417L1.48083 0.870833C1.5425 0.856667 1.60083 0.833333 1.66667 0.833333H6.66667V0H1.66667C0.7475 0 0 0.7475 0 1.66667V6.66667H0.833333V1.66667C0.833333 1.58833 0.8575 1.51833 0.878333 1.44667L9.345 9.91333L0.849167 18.41C0.846667 18.3833 0.833333 18.3608 0.833333 18.3333V13.3333H0V18.3333C0 19.2525 0.7475 20 1.66667 20H6.66667V19.1667H1.66667C1.55 19.1667 1.44 19.1417 1.33917 19.0983L9.93417 10.5033L18.5533 19.1225C18.4817 19.1425 18.4108 19.1667 18.3333 19.1667H13.3333V20H18.3333C19.2525 20 20 19.2525 20 18.3333V13.3333H19.1667V18.3333C19.1667 18.3992 19.1433 18.4575 19.1292 18.5192L10.5233 9.91333L19.0983 1.33917C19.1417 1.44 19.1667 1.55083 19.1667 1.66667V6.66667H20Z" fill="#113F5B"/>
</svg>
