<svg width="20" height="20" viewBox="0 0 20 20" fill="none" xmlns="http://www.w3.org/2000/svg">
<path d="M19.4208 10.7093C19.0082 10.2455 18.4482 9.99075 17.8431 9.99075H0.833439V3.36259C0.833439 2.66156 1.08264 1.96386 1.59187 1.48263C2.53699 0.589278 3.86216 0.675866 4.7106 1.38272L4.1897 4.37085C4.12469 4.73801 4.20053 5.11434 4.40222 5.42905C4.62559 5.77624 4.98563 6.01685 5.39152 6.09012C5.47819 6.10677 5.56654 6.11343 5.65405 6.11343C5.97409 6.11343 6.28996 6.01019 6.54916 5.81703L9.40536 3.67731C10.0254 3.2119 10.1846 2.33686 9.7554 1.66747C9.49453 1.262 9.04948 1.0064 8.56775 0.985585L5.35568 0.841549C4.1772 -0.237472 2.22278 -0.378178 0.902614 1.00557C0.296704 1.64166 0 2.5142 0 3.39174V10.1439C0 10.3221 0.0100013 10.4978 0.0308372 10.6743C0.107514 11.3329 0.302538 12.9989 0.302538 12.9989C0.534234 14.9637 1.52436 16.658 2.9387 17.7679C2.93537 17.7787 2.51198 19.4838 2.51198 19.4838C2.45698 19.7078 2.59366 19.9326 2.81619 19.9875C2.84953 19.9958 2.8837 20 2.9162 20C3.10373 20 3.27375 19.8734 3.32042 19.6836L3.6713 18.2674C4.62809 18.8302 5.72572 19.1483 6.88504 19.1483H13.3475C14.4277 19.1483 15.4536 18.8719 16.3621 18.379L16.6804 19.6645C16.7279 19.8543 16.898 19.9809 17.0847 19.9809C17.1172 19.9809 17.1513 19.9767 17.1847 19.9684C17.408 19.9134 17.5447 19.6878 17.4889 19.4647L17.1038 17.9102C18.619 16.8062 19.6883 15.0503 19.93 12.998L19.9834 12.5343C20.0625 11.8657 19.8567 11.1997 19.4183 10.7084L19.4208 10.7093ZM9.06448 2.13288C9.24867 2.42095 9.17866 2.80643 8.90613 3.01041L6.04993 5.15014C5.90158 5.26004 5.71989 5.30084 5.53987 5.2717C5.35901 5.23839 5.20482 5.13515 5.10481 4.98029C5.01647 4.84209 4.98313 4.6764 5.01147 4.51405L5.5057 1.68162L8.53191 1.81567C8.74444 1.82566 8.9403 1.93805 9.06615 2.13288H9.06448ZM19.1574 12.4385L19.1041 12.9023C18.7399 15.9895 16.2662 18.3174 13.3484 18.3174H6.88587C3.968 18.3174 1.49352 15.9895 1.13014 12.9023L0.885945 10.8242H17.8439C18.2073 10.8242 18.5465 10.9807 18.799 11.2629C19.0791 11.5776 19.2099 12.0064 19.1591 12.4385H19.1574Z" fill="#113F5B"/>
</svg>
