<svg width="20" height="19" viewBox="0 0 20 19" fill="none" xmlns="http://www.w3.org/2000/svg">
<path d="M16.25 0.666504H3.75C1.6825 0.666504 0 2.6855 0 5.1665V20.1665C0 20.4425 0.186667 20.6665 0.416667 20.6665C0.646667 20.6665 0.833333 20.4425 0.833333 20.1665V17.6665H19.1667V20.1665C19.1667 20.4425 19.3533 20.6665 19.5833 20.6665C19.8133 20.6665 20 20.4425 20 20.1665V5.1665C20 2.6855 18.3175 0.666504 16.25 0.666504ZM3.75 1.6665H16.25C17.8583 1.6665 19.1667 3.2365 19.1667 5.1665V12.6665H17.5V11.1665C17.5 9.2365 16.1917 7.6665 14.5833 7.6665H12.5C11.44 7.6665 10.5108 8.3485 10 9.3655C9.48917 8.3485 8.56 7.6665 7.5 7.6665H5.41667C3.80833 7.6665 2.5 9.2365 2.5 11.1665V12.6665H0.833333V5.1665C0.833333 3.2365 2.14167 1.6665 3.75 1.6665ZM10.4167 12.6665V11.1665C10.4167 9.7885 11.3508 8.6665 12.5 8.6665H14.5833C15.7325 8.6665 16.6667 9.7885 16.6667 11.1665V12.6665H10.4167ZM3.33333 12.6665V11.1665C3.33333 9.7885 4.26833 8.6665 5.41667 8.6665H7.5C8.64833 8.6665 9.58333 9.7885 9.58333 11.1665V12.6665H3.33333ZM0.833333 16.6665V13.6665H19.1667V16.6665H0.833333Z" fill="#113F5B"/>
</svg>
