<svg width="20" height="20" viewBox="0 0 20 20" fill="none" xmlns="http://www.w3.org/2000/svg">
<path d="M8.5325 12.3183C8.93833 12.7158 9.4725 12.9133 10.005 12.9133C10.5317 12.9133 11.0567 12.7192 11.4517 12.3325L14.1242 9.95833C15.2258 8.85667 15.8333 7.39167 15.8333 5.83333C15.8333 4.275 15.2258 2.81083 14.1242 1.70833C13.0233 0.606667 11.5583 0 10 0C8.44167 0 6.97667 0.606667 5.875 1.70833C3.60083 3.9825 3.60083 7.68333 5.8925 9.975L8.5325 12.3183ZM6.46417 2.2975C7.40917 1.35333 8.665 0.833333 10 0.833333C11.335 0.833333 12.5908 1.35333 13.535 2.2975C14.48 3.24167 15 4.4975 15 5.83333C15 7.16917 14.48 8.42417 13.5533 9.35167L10.8842 11.7225C10.3975 12.2 9.60417 12.1975 9.10083 11.7083L6.46417 9.36833C4.515 7.41917 4.515 4.24667 6.46417 2.2975ZM10 8.31667C11.3733 8.31667 12.4917 7.19917 12.4917 5.825C12.4917 4.45083 11.3733 3.33333 10 3.33333C8.62667 3.33333 7.50833 4.45083 7.50833 5.825C7.50833 7.19917 8.62667 8.31667 10 8.31667ZM10 4.16667C10.915 4.16667 11.6583 4.91083 11.6583 5.825C11.6583 6.73917 10.9142 7.48333 10 7.48333C9.08583 7.48333 8.34167 6.73917 8.34167 5.825C8.34167 4.91083 9.08583 4.16667 10 4.16667ZM20 14.18C20 14.3267 19.9233 14.4625 19.7975 14.5375L11.2058 19.6925C10.8342 19.9158 10.4175 20.0275 10 20.0275C9.5825 20.0275 9.16583 19.915 8.79417 19.6925L0.2025 14.5367C0.0766667 14.4617 0 14.3258 0 14.1792C0 14.0325 0.0766667 13.8967 0.2025 13.8217L4.36917 11.3217C4.56417 11.2025 4.8225 11.2675 4.94083 11.465C5.06 11.6617 4.995 11.9183 4.7975 12.0367L1.22667 14.1792L9.2225 18.9767C9.7025 19.265 10.2983 19.265 10.7783 18.9767L18.7742 14.1792L15.1817 12.0233C14.9842 11.905 14.92 11.6492 15.0383 11.4517C15.1575 11.2542 15.415 11.19 15.61 11.3083L19.7975 13.8217C19.9233 13.8975 20 14.0325 20 14.1792V14.18Z" fill="#113F5B"/>
</svg>
