<svg width="20" height="20" viewBox="0 0 20 20" fill="none" xmlns="http://www.w3.org/2000/svg">
<path d="M20 7.91893C20 6.75248 19.4267 5.66102 18.4642 5.00031L12.2625 0.739446C10.9083 -0.246203 9.08917 -0.244536 7.74667 0.73278L1.53583 5.00031C0.574167 5.66102 0 6.75248 0 7.91893C0 9.06788 0.934167 10.0019 2.08333 10.0019H9.58333V19.5834C9.58333 19.8134 9.77 20 10 20C10.23 20 10.4167 19.8134 10.4167 19.5834V10.0019H17.9167C19.0658 10.0019 20 9.06788 20 7.91893ZM5 7.76063V9.1687H2.08333C1.39417 9.1687 0.833333 8.60797 0.833333 7.91893C0.833333 7.0266 1.27167 6.19259 2.0075 5.68685L8.2275 1.41265C8.49 1.22186 8.775 1.07855 9.07083 0.9819L5.72583 5.54271C5.2575 6.18093 5 6.96828 5 7.7598V7.76063ZM9.58333 9.1687H5.83333V7.76063C5.83333 7.14491 6.03333 6.53253 6.39833 6.03679L9.58333 1.69427V9.16953V9.1687ZM14.1667 9.1687H10.4167V1.69343L13.6017 6.03595C13.9667 6.53253 14.1667 7.14408 14.1667 7.7598V9.16786V9.1687ZM14.2742 5.54271L10.93 0.983567C11.2283 1.08105 11.5158 1.22602 11.7808 1.41932L17.9917 5.68685C18.7275 6.19176 19.1658 7.02577 19.1658 7.91893C19.1658 8.60797 18.605 9.1687 17.9158 9.1687H14.9992V7.76063C14.9992 6.96911 14.7408 6.18093 14.2733 5.54355L14.2742 5.54271ZM5 17.9171V19.5834C5 19.8134 4.81333 20 4.58333 20C4.35333 20 4.16667 19.8134 4.16667 19.5834V17.9171C4.16667 17.228 3.60583 16.6673 2.91667 16.6673H0.833333V19.5834C0.833333 19.8134 0.646667 20 0.416667 20C0.186667 20 0 19.8134 0 19.5834V12.918C0 12.688 0.186667 12.5014 0.416667 12.5014C0.646667 12.5014 0.833333 12.688 0.833333 12.918V15.8341H2.91667C4.06583 15.8341 5 16.7681 5 17.9171ZM20 12.918V19.5834C20 19.8134 19.8133 20 19.5833 20C19.3533 20 19.1667 19.8134 19.1667 19.5834V16.6673H17.0833C16.3942 16.6673 15.8333 17.228 15.8333 17.9171V19.5834C15.8333 19.8134 15.6467 20 15.4167 20C15.1867 20 15 19.8134 15 19.5834V17.9171C15 16.7681 15.9342 15.8341 17.0833 15.8341H19.1667V12.918C19.1667 12.688 19.3533 12.5014 19.5833 12.5014C19.8133 12.5014 20 12.688 20 12.918Z" fill="#113F5B"/>
</svg>
