<svg width="20" height="20" viewBox="0 0 20 20" fill="none" xmlns="http://www.w3.org/2000/svg">
<path d="M20 7.27273H18.3333V4.09091C18.3333 1.83545 16.6508 0 14.5833 0H5.41667C3.34917 0 1.66667 1.83545 1.66667 4.09091V7.27273H0V18.1818H1.66667V20H2.5V18.1818H17.5V20H18.3333V18.1818H20V7.27273ZM5.41667 0.909091H14.5833C16.1917 0.909091 17.5 2.33636 17.5 4.09091V7.31818C16.55 7.52909 15.8333 8.44727 15.8333 9.54545V12.7273H4.16667V9.54545C4.16667 8.44818 3.45 7.53 2.5 7.31818V4.09091C2.5 2.33636 3.80833 0.909091 5.41667 0.909091ZM19.1667 17.2727H0.833333V8.18182H2.08333C2.7725 8.18182 3.33333 8.79364 3.33333 9.54545V13.6364H16.6667V9.54545C16.6667 8.79364 17.2275 8.18182 17.9167 8.18182H19.1667V17.2727Z" fill="#113F5B"/>
</svg>
