<svg width="20" height="20" viewBox="0 0 20 20" fill="none" xmlns="http://www.w3.org/2000/svg">
<path d="M19.6872 16.075L12.0631 1.24417C11.6564 0.476667 10.8656 0 9.99972 0C9.13389 0 8.34306 0.476667 7.93222 1.2525L0.313889 16.0708C-0.131944 16.9175 -0.103611 17.9108 0.389722 18.7308C0.882222 19.5483 1.74472 20.0367 2.69722 20.0367H17.3006C18.2531 20.0367 19.1156 19.5483 19.6081 18.7308C20.1031 17.9092 20.1297 16.9125 19.6856 16.0742L19.6872 16.075ZM9.40972 2.02333C9.58055 1.70083 9.87889 1.66667 9.99972 1.66667C10.1206 1.66667 10.4197 1.70167 10.5856 2.01417L13.5647 7.80917L12.3356 9.91L11.5464 8.6075C11.3964 8.36 11.1289 8.20833 10.8389 8.20583H10.8331C10.5456 8.20583 10.2789 8.35333 10.1264 8.5975L8.77222 10.8475L6.62306 7.44417L9.40972 2.02333ZM18.1814 17.8717C17.9906 18.1883 17.6697 18.3708 17.3014 18.3708H2.69806C2.32972 18.3708 2.00889 18.1892 1.81806 17.8717C1.62472 17.5508 1.61472 17.1767 1.78972 16.8458C1.79139 16.8433 1.79306 16.84 1.79389 16.8367L5.73722 9.165L7.36222 11.7375C7.66389 12.215 8.18056 12.5 8.74472 12.5H8.74889C9.31472 12.4992 9.83222 12.2108 10.1322 11.7317L10.8214 10.6292L10.9864 10.9025C11.2772 11.3825 11.7764 11.6275 12.3472 11.6633C12.9089 11.6592 13.4131 11.3675 13.6972 10.8825L14.4672 9.5675L18.2089 16.8467C18.3839 17.1775 18.3739 17.5517 18.1806 17.8725L18.1814 17.8717Z" fill="#113F5B"/>
</svg>
