<svg width="997" height="92" viewBox="0 0 997 92" fill="none" xmlns="http://www.w3.org/2000/svg">
<path d="M38.9385 91.024C32.1118 91.024 26.3945 90.5547 21.7865 89.616C17.1785 88.6773 13.4238 87.184 10.5225 85.136C7.70651 83.0027 5.57317 80.2293 4.12251 76.816C2.75717 73.3173 1.81851 69.0507 1.30651 64.016C0.794506 58.896 0.538507 52.88 0.538507 45.968C0.538507 39.056 0.794506 33.0827 1.30651 28.048C1.81851 22.928 2.75717 18.6613 4.12251 15.248C5.57317 11.7493 7.70651 8.976 10.5225 6.92799C13.4238 4.79466 17.1785 3.25866 21.7865 2.31999C26.3945 1.38133 32.1118 0.911995 38.9385 0.911995C41.6692 0.911995 44.4852 1.04 47.3865 1.296C50.2878 1.46666 53.0612 1.72266 55.7065 2.064C58.4372 2.40533 60.7838 2.832 62.7465 3.34399V23.312C59.3332 23.056 56.5172 22.8427 54.2985 22.672C52.1652 22.5013 50.4585 22.416 49.1785 22.416C47.8985 22.3307 46.8318 22.288 45.9785 22.288C42.9065 22.288 40.3892 22.416 38.4265 22.672C36.5492 22.928 35.0558 23.5253 33.9465 24.464C32.8372 25.3173 32.0265 26.5973 31.5145 28.304C31.0878 30.0107 30.8318 32.3147 30.7465 35.216C30.6612 38.032 30.6185 41.616 30.6185 45.968C30.6185 50.32 30.6612 53.9467 30.7465 56.848C30.8318 59.664 31.0878 61.968 31.5145 63.76C32.0265 65.4667 32.8372 66.7467 33.9465 67.6C35.0558 68.4533 36.5492 69.008 38.4265 69.264C40.3892 69.52 42.9065 69.648 45.9785 69.648C48.5385 69.648 51.4398 69.5627 54.6825 69.392C57.9252 69.2213 60.7838 68.9653 63.2585 68.624V88.976C61.3812 89.3173 59.0345 89.6587 56.2185 90C53.4878 90.3413 50.6292 90.5973 47.6425 90.768C44.6558 90.9387 41.7545 91.024 38.9385 91.024ZM87.1155 90V1.936H117.068V67.472H146.508V90H87.1155ZM206.054 91.024C198.288 91.024 191.931 90.5547 186.982 89.616C182.118 88.6773 178.32 87.184 175.59 85.136C172.859 83.088 170.854 80.3147 169.574 76.816C168.379 73.3173 167.654 69.0507 167.398 64.016C167.142 58.896 167.014 52.88 167.014 45.968C167.014 39.056 167.142 33.0827 167.398 28.048C167.654 22.928 168.379 18.6187 169.574 15.12C170.854 11.6213 172.859 8.84799 175.59 6.8C178.32 4.752 182.118 3.25866 186.982 2.31999C191.931 1.38133 198.288 0.911995 206.054 0.911995C213.819 0.911995 220.134 1.38133 224.998 2.31999C229.947 3.25866 233.787 4.752 236.518 6.8C239.334 8.84799 241.339 11.6213 242.534 15.12C243.728 18.6187 244.454 22.928 244.71 28.048C245.051 33.0827 245.222 39.056 245.222 45.968C245.222 52.88 245.051 58.896 244.71 64.016C244.454 69.0507 243.728 73.3173 242.534 76.816C241.339 80.3147 239.334 83.088 236.518 85.136C233.787 87.184 229.947 88.6773 224.998 89.616C220.134 90.5547 213.819 91.024 206.054 91.024ZM206.054 69.648C207.846 69.648 209.296 69.5627 210.406 69.392C211.6 69.2213 212.496 68.752 213.094 67.984C213.776 67.216 214.246 66.0213 214.502 64.4C214.758 62.6933 214.928 60.3467 215.014 57.36C215.099 54.3733 215.142 50.576 215.142 45.968C215.142 41.36 215.099 37.5627 215.014 34.576C214.928 31.5893 214.758 29.2853 214.502 27.664C214.246 25.9573 213.776 24.72 213.094 23.952C212.496 23.184 211.6 22.7147 210.406 22.544C209.296 22.3733 207.846 22.288 206.054 22.288C204.262 22.288 202.768 22.3733 201.574 22.544C200.464 22.7147 199.611 23.184 199.014 23.952C198.416 24.72 197.947 25.9573 197.606 27.664C197.35 29.2853 197.179 31.5893 197.094 34.576C197.094 37.5627 197.094 41.36 197.094 45.968C197.094 50.576 197.094 54.3733 197.094 57.36C197.179 60.3467 197.35 62.6933 197.606 64.4C197.947 66.0213 198.416 67.216 199.014 67.984C199.611 68.752 200.464 69.2213 201.574 69.392C202.768 69.5627 204.262 69.648 206.054 69.648ZM306.574 91.024C299.32 91.024 293.39 90.5973 288.782 89.744C284.174 88.8053 280.59 87.3547 278.03 85.392C275.47 83.4293 273.592 80.8693 272.398 77.712C271.288 74.4693 270.606 70.544 270.35 65.936C270.094 61.2427 269.966 55.7813 269.966 49.552V1.936H299.918V54.416C299.918 57.9147 299.96 60.688 300.046 62.736C300.131 64.6987 300.344 66.1493 300.686 67.088C301.112 68.0267 301.795 68.624 302.734 68.88C303.672 69.136 304.952 69.264 306.574 69.264C308.28 69.264 309.56 69.136 310.414 68.88C311.352 68.624 312.035 68.0267 312.462 67.088C312.888 66.1493 313.144 64.6987 313.23 62.736C313.315 60.688 313.358 57.9147 313.358 54.416V1.936H343.31V49.552C343.31 55.7813 343.182 61.2427 342.926 65.936C342.67 70.544 341.944 74.4693 340.75 77.712C339.64 80.8693 337.763 83.4293 335.118 85.392C332.558 87.3547 328.974 88.8053 324.366 89.744C319.758 90.5973 313.827 91.024 306.574 91.024ZM369.141 90V1.936H401.781C409.973 1.936 416.629 2.36266 421.749 3.216C426.954 4.06933 431.007 5.47733 433.909 7.43999C436.81 9.40266 438.901 12.0907 440.181 15.504C441.461 18.832 442.229 23.0133 442.485 28.048C442.826 32.9973 442.997 38.9707 442.997 45.968C442.997 52.9653 442.826 58.9813 442.485 64.016C442.229 68.9653 441.461 73.1467 440.181 76.56C438.901 79.888 436.81 82.5333 433.909 84.496C431.007 86.4587 426.954 87.8667 421.749 88.72C416.629 89.5733 409.973 90 401.781 90H369.141ZM399.093 68.624H402.165C404.298 68.624 406.047 68.5387 407.413 68.368C408.778 68.112 409.845 67.6427 410.613 66.96C411.381 66.192 411.893 64.9973 412.149 63.376C412.49 61.7547 412.703 59.5787 412.789 56.848C412.874 54.032 412.917 50.448 412.917 46.096C412.917 41.6587 412.874 38.032 412.789 35.216C412.703 32.4 412.49 30.1813 412.149 28.56C411.893 26.9387 411.381 25.744 410.613 24.976C409.845 24.208 408.778 23.7387 407.413 23.568C406.047 23.3973 404.298 23.312 402.165 23.312H399.093V68.624ZM553.622 90L578.07 1.936H619.67L644.118 90H614.422L611.222 76.816H585.75L582.678 90H553.622ZM590.614 56.336H606.23L598.934 26H597.782L590.614 56.336ZM673.731 90V24.464H652.227V1.936H725.315V24.464H703.683V90H673.731ZM746.266 90V1.936H776.218V67.472H805.658V90H746.266ZM820.147 90L844.595 1.936H886.195L910.643 90H880.947L877.747 76.816H852.275L849.203 90H820.147ZM857.139 56.336H872.755L865.459 26H864.307L857.139 56.336ZM963.798 91.024C960.128 91.024 956.203 90.896 952.022 90.64C947.84 90.4693 943.787 90.2133 939.862 89.872C935.936 89.5307 932.523 89.1467 929.622 88.72V68.368C932.779 68.624 935.851 68.88 938.838 69.136C941.91 69.3067 944.768 69.4347 947.414 69.52C950.144 69.6053 952.448 69.648 954.326 69.648C957.739 69.648 960.299 69.6053 962.006 69.52C963.712 69.3493 964.864 69.0507 965.462 68.624C965.888 68.2827 966.187 67.8987 966.358 67.472C966.528 67.0453 966.614 66.5333 966.614 65.936C966.699 65.3387 966.742 64.656 966.742 63.888C966.742 62.608 966.614 61.6267 966.358 60.944C966.102 60.2613 965.59 59.7493 964.822 59.408C964.054 58.9813 962.902 58.64 961.366 58.384C959.83 58.128 957.782 57.8293 955.222 57.488L940.246 55.568C937.6 55.2267 935.424 54.3733 933.718 53.008C932.011 51.5573 930.646 49.68 929.622 47.376C928.683 44.9867 928 42.1707 927.574 38.928C927.232 35.6 927.062 31.9307 927.062 27.92C927.062 22.1173 927.958 17.4667 929.75 13.968C931.542 10.384 934.016 7.65333 937.174 5.77599C940.416 3.89866 944.128 2.61867 948.31 1.936C952.491 1.25333 957.014 0.911995 961.878 0.911995C965.462 0.911995 969.131 1.04 972.886 1.296C976.726 1.55199 980.31 1.89333 983.638 2.31999C987.051 2.66133 989.867 3.08799 992.086 3.6V23.696C989.952 23.44 987.392 23.2267 984.406 23.056C981.504 22.8 978.518 22.6293 975.446 22.544C972.374 22.3733 969.472 22.288 966.742 22.288C964.694 22.288 963.03 22.3307 961.75 22.416C960.47 22.5013 959.488 22.7573 958.806 23.184C958.123 23.6107 957.611 24.1653 957.27 24.848C957.014 25.4453 956.886 26.2133 956.886 27.152C956.886 28.6027 957.014 29.712 957.27 30.48C957.526 31.248 958.166 31.8027 959.19 32.144C960.214 32.4 961.835 32.6987 964.054 33.04L977.494 34.704C979.712 34.96 981.803 35.3867 983.766 35.984C985.728 36.5813 987.563 37.52 989.27 38.8C990.976 39.9947 992.47 41.8293 993.75 44.304C994.347 45.328 994.816 46.6507 995.158 48.272C995.584 49.8933 995.926 51.8133 996.182 54.032C996.438 56.1653 996.566 58.64 996.566 61.456C996.566 66.832 996.011 71.312 994.902 74.896C993.878 78.48 992.342 81.3387 990.294 83.472C988.331 85.6053 985.984 87.2267 983.254 88.336C980.523 89.4453 977.494 90.1707 974.166 90.512C970.923 90.8533 967.467 91.024 963.798 91.024Z" fill="#028090"/>
</svg>
