<svg width="27" height="26" viewBox="0 0 27 26" fill="none" xmlns="http://www.w3.org/2000/svg">
<path d="M0.182434 2.05263C0.182434 0.916842 0.926356 0 1.84793 0H19.6132C20.5348 0 21.2787 0.916842 21.2787 2.05263C21.2787 3.18842 20.5348 4.10526 19.6132 4.10526H1.84793C0.926356 4.10526 0.182434 3.18842 0.182434 2.05263ZM19.6132 21.8947H1.84793C0.926356 21.8947 0.182434 22.8116 0.182434 23.9474C0.182434 25.0832 0.926356 26 1.84793 26H19.6132C20.5348 26 21.2787 25.0832 21.2787 23.9474C21.2787 22.8116 20.5348 21.8947 19.6132 21.8947ZM25.1649 10.9474H7.39959C6.47801 10.9474 5.73409 11.8642 5.73409 13C5.73409 14.1358 6.47801 15.0526 7.39959 15.0526H25.1649C26.0865 15.0526 26.8304 14.1358 26.8304 13C26.8304 11.8642 26.0865 10.9474 25.1649 10.9474Z" fill="#113F5B"/>
</svg>
