<svg width="23" height="16" viewBox="0 0 23 16" fill="none" xmlns="http://www.w3.org/2000/svg">
<path d="M0 1.26316C0 0.564211 0.642083 0 1.4375 0H16.7708C17.5662 0 18.2083 0.564211 18.2083 1.26316C18.2083 1.96211 17.5662 2.52632 16.7708 2.52632H1.4375C0.642083 2.52632 0 1.96211 0 1.26316ZM16.7708 13.4737H1.4375C0.642083 13.4737 0 14.0379 0 14.7368C0 15.4358 0.642083 16 1.4375 16H16.7708C17.5662 16 18.2083 15.4358 18.2083 14.7368C18.2083 14.0379 17.5662 13.4737 16.7708 13.4737ZM21.5625 6.73684H6.22917C5.43375 6.73684 4.79167 7.30105 4.79167 8C4.79167 8.69895 5.43375 9.26316 6.22917 9.26316H21.5625C22.3579 9.26316 23 8.69895 23 8C23 7.30105 22.3579 6.73684 21.5625 6.73684Z" fill="#253466"/>
</svg>
