<svg width="200" height="200" viewBox="0 0 200 200" fill="none" xmlns="http://www.w3.org/2000/svg">
<circle cx="100" cy="100" r="99.5" stroke="#F45B69"/>
<circle cx="100" cy="100" r="64.3649" stroke="#F45B69"/>
<path d="M101.389 134.054C118.032 134.054 131.523 133.489 131.523 132.792C131.523 132.095 118.032 131.531 101.389 131.531C84.7471 131.531 71.2559 132.095 71.2559 132.792C71.2559 133.489 84.7471 134.054 101.389 134.054Z" fill="#F45B69"/>
<path d="M136.067 121L131.952 124.216C131.952 124.216 114.826 137.6 82.9454 112.684C49.4085 86.4747 66.5344 73.0897 66.5344 73.0897L70.6481 69.8748C72.3776 68.5232 75.1825 68.5232 76.9118 69.8748L91.6123 81.3634C93.3418 82.715 93.3418 84.9063 91.6123 86.2578L85.785 90.812C85.785 90.812 88.8106 96.6767 95.5884 101.974C102.366 107.272 109.277 109.17 109.277 109.17L115.103 104.617C116.832 103.265 119.637 103.265 121.367 104.617L136.067 116.106C137.797 117.457 137.797 119.648 136.067 121Z" fill="#F45B69"/>
<path d="M91.6126 86.2576L85.9883 90.653C85.4217 89.7722 85.1484 89.243 85.1484 89.243L90.7282 84.8823C91.9088 83.9596 92.2477 82.6281 91.7442 81.4709C93.3407 82.829 93.2967 84.9415 91.6126 86.2576Z" fill="#F45B69"/>
<path d="M136.067 121L131.952 124.216C131.952 124.216 114.826 137.6 82.9455 112.684C61.5517 95.9649 60.775 84.4639 63.0171 78.3274C61.3473 84.4167 63.0951 95.0751 82.4297 110.185C112.955 134.042 129.353 121.227 129.353 121.227L133.293 118.147C134.476 117.223 134.814 115.888 134.306 114.729L136.067 116.106C137.797 117.457 137.797 119.648 136.067 121Z" fill="#F45B69"/>
<path d="M67.9196 75.9336C67.6171 76.062 67.2877 75.7984 67.4574 75.5643C67.6563 75.29 67.9088 75.0048 68.204 74.8029C68.7732 74.4137 71.5632 72.4748 72.9582 71.5049C73.4042 71.1949 74.0831 71.2149 74.4983 71.5499L80.6314 76.4984C80.9166 76.7286 80.5658 77.0928 80.2043 76.9416C77.2518 75.7068 72.1195 74.15 67.9196 75.9336Z" fill="#F45B69"/>
<path d="M112.647 110.567C112.344 110.696 112.015 110.432 112.184 110.198C112.383 109.924 112.636 109.639 112.931 109.437C113.5 109.048 116.29 107.109 117.685 106.139C118.131 105.829 118.81 105.849 119.225 106.184L125.358 111.132C125.644 111.362 125.293 111.727 124.931 111.575C121.979 110.341 116.847 108.784 112.647 110.567Z" fill="#F45B69"/>
<path d="M89.6652 71.5912C89.4203 71.5912 89.1753 71.5182 88.9884 71.3722C88.6146 71.08 88.6146 70.6064 88.9884 70.3143L97.4592 63.6942C97.833 63.4021 98.4391 63.4021 98.8129 63.6942C99.1867 63.9863 99.1867 64.4599 98.8129 64.7521L90.3421 71.3722C90.1552 71.5182 89.9102 71.5912 89.6652 71.5912Z" fill="#F45B69"/>
<path d="M83.6836 68.7862C83.6042 68.7862 83.5235 68.7784 83.4429 68.7621C82.9312 68.6585 82.6239 68.2503 82.7564 67.8504L84.8143 61.6418C84.9469 61.2418 85.4689 61.0014 85.9809 61.1052C86.4927 61.2088 86.8 61.617 86.6675 62.0169L84.6096 68.2256C84.4978 68.5626 84.1094 68.7862 83.6836 68.7862Z" fill="#F45B69"/>
<path d="M93.1579 76.79C92.7322 76.79 92.3438 76.5664 92.232 76.2294C92.0994 75.8294 92.4068 75.4212 92.9185 75.3177L100.863 73.7094C101.375 73.6058 101.897 73.846 102.03 74.2459C102.162 74.6459 101.855 75.0541 101.343 75.1576L93.3986 76.7659C93.3182 76.7822 93.2374 76.79 93.1579 76.79Z" fill="#F45B69"/>
<path d="M133.55 105.889C133.306 105.889 133.061 105.816 132.874 105.67C132.5 105.378 132.5 104.904 132.874 104.612L141.344 97.9918C141.718 97.6997 142.324 97.6997 142.698 97.9918C143.072 98.2839 143.072 98.7575 142.698 99.0497L134.227 105.67C134.04 105.816 133.795 105.889 133.55 105.889Z" fill="#F45B69"/>
<path d="M127.569 103.084C127.489 103.084 127.409 103.076 127.328 103.06C126.816 102.956 126.509 102.548 126.642 102.148L128.7 95.9394C128.832 95.5394 129.354 95.299 129.866 95.4028C130.378 95.5064 130.685 95.9146 130.553 96.3145L128.495 102.523C128.383 102.86 127.995 103.084 127.569 103.084Z" fill="#F45B69"/>
<path d="M137.044 111.088C136.618 111.088 136.23 110.864 136.118 110.527C135.985 110.127 136.293 109.719 136.804 109.616L144.749 108.007C145.261 107.904 145.783 108.144 145.915 108.544C146.048 108.944 145.74 109.352 145.229 109.456L137.284 111.064C137.204 111.08 137.123 111.088 137.044 111.088Z" fill="#F45B69"/>
</svg>
