<svg width="250" height="250" viewBox="0 0 250 250" fill="none" xmlns="http://www.w3.org/2000/svg">
<circle cx="125" cy="125" r="124.5" stroke="#F45B69"/>
<circle cx="125" cy="125" r="80.5" stroke="#F45B69"/>
<path d="M126.736 167.567C147.539 167.567 164.403 166.861 164.403 165.99C164.403 165.119 147.539 164.413 126.736 164.413C105.933 164.413 89.0693 165.119 89.0693 165.99C89.0693 166.861 105.933 167.567 126.736 167.567Z" fill="#F45B69"/>
<path d="M170.084 151.249L164.94 155.269C164.94 155.269 143.533 171.999 103.682 140.855C61.7606 108.093 83.1679 91.3615 83.1679 91.3615L88.3102 87.3428C90.472 85.6533 93.9781 85.6533 96.1398 87.3428L114.515 101.704C116.677 103.393 116.677 106.132 114.515 107.822L107.231 113.514C107.231 113.514 111.013 120.845 119.486 127.466C127.958 134.089 136.596 136.462 136.596 136.462L143.879 130.77C146.04 129.081 149.547 129.081 151.708 130.77L170.084 145.131C172.246 146.821 172.246 149.56 170.084 151.249Z" fill="#F45B69"/>
<path d="M114.516 107.821L107.485 113.315C106.777 112.214 106.436 111.553 106.436 111.553L113.41 106.102C114.886 104.949 115.31 103.284 114.68 101.838C116.676 103.535 116.621 106.176 114.516 107.821Z" fill="#F45B69"/>
<path d="M170.084 151.249L164.941 155.269C164.941 155.269 143.533 171.999 103.682 140.855C76.9398 119.956 75.9688 105.579 78.7715 97.9087C76.6843 105.52 78.869 118.843 103.037 137.731C141.194 167.552 161.692 151.533 161.692 151.533L166.616 147.684C168.095 146.528 168.517 144.859 167.883 143.411L170.084 145.131C172.246 146.821 172.246 149.56 170.084 151.249Z" fill="#F45B69"/>
<path d="M84.8999 94.9163C84.5219 95.0769 84.1102 94.7473 84.3223 94.4547C84.5709 94.1118 84.8865 93.7553 85.2555 93.503C85.967 93.0165 89.4545 90.5929 91.1983 89.3805C91.7557 88.993 92.6044 89.0179 93.1234 89.4367L100.79 95.6224C101.146 95.91 100.708 96.3653 100.256 96.1763C96.5653 94.6329 90.1499 92.6868 84.8999 94.9163Z" fill="#F45B69"/>
<path d="M140.808 138.208C140.43 138.369 140.019 138.039 140.231 137.747C140.479 137.404 140.795 137.047 141.164 136.795C141.875 136.308 145.363 133.885 147.107 132.672C147.664 132.285 148.513 132.31 149.032 132.729L156.698 138.914C157.055 139.202 156.616 139.657 156.164 139.468C152.474 137.925 146.058 135.979 140.808 138.208Z" fill="#F45B69"/>
<path d="M112.081 89.4879C111.775 89.4879 111.469 89.3967 111.235 89.2141C110.768 88.8489 110.768 88.2569 111.235 87.8918L121.824 79.6166C122.291 79.2515 123.049 79.2515 123.516 79.6166C123.983 79.9818 123.983 80.5738 123.516 80.939L112.927 89.2141C112.694 89.3967 112.387 89.4879 112.081 89.4879Z" fill="#F45B69"/>
<path d="M104.604 85.982C104.505 85.982 104.404 85.9723 104.303 85.9519C103.664 85.8224 103.28 85.3122 103.445 84.8123L106.018 77.0515C106.183 76.5515 106.836 76.251 107.476 76.3808C108.116 76.5102 108.5 77.0205 108.334 77.5204L105.762 85.2812C105.622 85.7025 105.136 85.982 104.604 85.982Z" fill="#F45B69"/>
<path d="M116.447 95.9868C115.915 95.9868 115.43 95.7074 115.29 95.286C115.124 94.7861 115.508 94.2759 116.148 94.1464L126.079 92.1361C126.719 92.0066 127.371 92.3068 127.537 92.8067C127.703 93.3067 127.318 93.8169 126.679 93.9464L116.748 95.9567C116.648 95.9771 116.547 95.9868 116.447 95.9868Z" fill="#F45B69"/>
<path d="M166.938 132.361C166.632 132.361 166.326 132.269 166.092 132.087C165.625 131.721 165.625 131.129 166.092 130.764L176.681 122.489C177.148 122.124 177.906 122.124 178.373 122.489C178.84 122.854 178.84 123.446 178.373 123.812L167.784 132.087C167.551 132.269 167.244 132.361 166.938 132.361Z" fill="#F45B69"/>
<path d="M159.461 128.854C159.362 128.854 159.261 128.844 159.16 128.824C158.521 128.695 158.137 128.184 158.302 127.684L160.875 119.924C161.04 119.424 161.693 119.123 162.333 119.253C162.973 119.382 163.357 119.893 163.191 120.392L160.619 128.153C160.479 128.575 159.993 128.854 159.461 128.854Z" fill="#F45B69"/>
<path d="M171.304 138.859C170.772 138.859 170.287 138.579 170.147 138.158C169.981 137.658 170.365 137.148 171.005 137.018L180.936 135.008C181.575 134.879 182.228 135.179 182.394 135.679C182.56 136.179 182.175 136.689 181.536 136.818L171.605 138.829C171.505 138.849 171.404 138.859 171.304 138.859Z" fill="#F45B69"/>
</svg>
