<svg width="84" height="74" viewBox="0 0 84 74" fill="none" xmlns="http://www.w3.org/2000/svg">
<path d="M39.3892 73.0539C56.0315 73.0539 69.5228 72.489 69.5228 71.7923C69.5228 71.0955 56.0315 70.5306 39.3892 70.5306C22.7469 70.5306 9.25562 71.0955 9.25562 71.7923C9.25562 72.489 22.7469 73.0539 39.3892 73.0539Z" fill="#F45B69"/>
<path d="M74.0672 59.9998L69.9523 63.2156C69.9523 63.2156 52.8264 76.5997 20.9454 51.6842C-12.5915 25.4746 4.53436 12.0896 4.53436 12.0896L8.64813 8.87465C10.3776 7.52307 13.1825 7.52307 14.9118 8.87465L29.6123 20.3633C31.3418 21.7149 31.3418 23.9062 29.6123 25.2577L23.785 29.8119C23.785 29.8119 26.8106 35.6766 33.5884 40.9736C40.3663 46.2714 47.2765 48.1701 47.2765 48.1701L53.1029 43.6167C54.8324 42.2651 57.6373 42.2651 59.3666 43.6167L74.0671 55.1054C75.7966 56.457 75.7966 58.6482 74.0672 59.9998Z" fill="#F45B69"/>
<path d="M29.6126 25.2576L23.9883 29.653C23.4217 28.7722 23.1484 28.243 23.1484 28.243L28.7282 23.8823C29.9088 22.9596 30.2477 21.6281 29.7442 20.4709C31.3407 21.829 31.2967 23.9415 29.6126 25.2576Z" fill="#F45B69"/>
<path d="M74.067 59.9999L69.9522 63.2156C69.9522 63.2156 52.8263 76.5998 20.9454 51.6844C-0.44841 34.9648 -1.22517 23.4638 1.01698 17.3273C-0.652792 23.4166 1.095 34.0749 20.4295 49.1852C50.9551 73.0418 67.3531 60.2265 67.3531 60.2265L71.2927 57.1472C72.4757 56.2227 72.8136 54.8878 72.3059 53.7291L74.067 55.1055C75.7966 56.4568 75.7966 58.6482 74.067 59.9999Z" fill="#F45B69"/>
<path d="M5.9198 14.9335C5.61737 15.0619 5.28797 14.7982 5.45765 14.5642C5.65654 14.2899 5.90906 14.0046 6.20428 13.8028C6.77344 13.4136 9.56344 11.4747 10.9585 10.5048C11.4044 10.1948 12.0834 10.2147 12.4986 10.5498L18.6316 15.4983C18.9168 15.7284 18.566 16.0927 18.2046 15.9415C15.2521 14.7067 10.1197 13.1498 5.9198 14.9335Z" fill="#F45B69"/>
<path d="M50.6465 49.5674C50.3441 49.6958 50.0147 49.4322 50.1843 49.1981C50.3832 48.9238 50.6357 48.6385 50.931 48.4367C51.5001 48.0475 54.2901 46.1086 55.6852 45.1387C56.1311 44.8287 56.8101 44.8487 57.2253 45.1837L63.3583 50.1322C63.6435 50.3624 63.2927 50.7266 62.9313 50.5754C59.9787 49.3407 54.8464 47.7838 50.6465 49.5674Z" fill="#F45B69"/>
<path d="M27.665 10.5912C27.42 10.5912 27.175 10.5182 26.9881 10.3722C26.6143 10.08 26.6143 9.60643 26.9881 9.31429L35.459 2.6942C35.8328 2.40206 36.4388 2.40206 36.8126 2.6942C37.1864 2.98633 37.1864 3.45993 36.8126 3.75206L28.3418 10.3722C28.1549 10.5182 27.9099 10.5912 27.665 10.5912Z" fill="#F45B69"/>
<path d="M21.6834 7.7862C21.6039 7.7862 21.5232 7.77841 21.4427 7.76211C20.931 7.65853 20.6236 7.25033 20.7562 6.8504L22.8141 0.641753C22.9466 0.241821 23.4687 0.00141629 23.9807 0.1052C24.4924 0.208781 24.7998 0.616983 24.6673 1.01691L22.6094 7.22556C22.4976 7.56257 22.1091 7.7862 21.6834 7.7862Z" fill="#F45B69"/>
<path d="M31.1579 15.7901C30.7322 15.7901 30.3438 15.5665 30.232 15.2295C30.0994 14.8296 30.4068 14.4214 30.9185 14.3178L38.8629 12.7095C39.3749 12.6059 39.897 12.8461 40.0296 13.2461C40.1621 13.646 39.8547 14.0542 39.343 14.1578L31.3986 15.766C31.3182 15.7823 31.2374 15.7901 31.1579 15.7901Z" fill="#F45B69"/>
<path d="M71.5505 44.8888C71.3055 44.8888 71.0605 44.8158 70.8736 44.6698C70.4998 44.3776 70.4998 43.904 70.8736 43.6119L79.3445 36.9918C79.7183 36.6997 80.3243 36.6997 80.6981 36.9918C81.0719 37.2839 81.0719 37.7575 80.6981 38.0497L72.2273 44.6698C72.0404 44.8158 71.7954 44.8888 71.5505 44.8888Z" fill="#F45B69"/>
<path d="M65.5689 42.0838C65.4894 42.0838 65.4087 42.076 65.3282 42.0597C64.8165 41.9561 64.5091 41.5479 64.6416 41.148L66.6995 34.9394C66.8321 34.5394 67.3542 34.299 67.8662 34.4028C68.3779 34.5064 68.6853 34.9146 68.5528 35.3145L66.4949 41.5232C66.3831 41.8602 65.9946 42.0838 65.5689 42.0838Z" fill="#F45B69"/>
<path d="M75.0436 50.0877C74.6178 50.0877 74.2294 49.8642 74.1176 49.5271C73.9851 49.1272 74.2924 48.719 74.8042 48.6154L82.7485 47.0071C83.2605 46.9035 83.7826 47.1437 83.9152 47.5437C84.0477 47.9436 83.7404 48.3518 83.2286 48.4554L75.2842 50.0637C75.2037 50.08 75.1229 50.0877 75.0436 50.0877Z" fill="#F45B69"/>
</svg>
