<svg width="27" height="26" viewBox="0 0 27 26" fill="none" xmlns="http://www.w3.org/2000/svg">
<path d="M0.182617 2.05263C0.182617 0.916842 0.926539 0 1.84811 0H19.6134C20.535 0 21.2789 0.916842 21.2789 2.05263C21.2789 3.18842 20.535 4.10526 19.6134 4.10526H1.84811C0.926539 4.10526 0.182617 3.18842 0.182617 2.05263ZM19.6134 21.8947H1.84811C0.926539 21.8947 0.182617 22.8116 0.182617 23.9474C0.182617 25.0832 0.926539 26 1.84811 26H19.6134C20.535 26 21.2789 25.0832 21.2789 23.9474C21.2789 22.8116 20.535 21.8947 19.6134 21.8947ZM25.1651 10.9474H7.39977C6.47819 10.9474 5.73427 11.8642 5.73427 13C5.73427 14.1358 6.47819 15.0526 7.39977 15.0526H25.1651C26.0866 15.0526 26.8306 14.1358 26.8306 13C26.8306 11.8642 26.0866 10.9474 25.1651 10.9474Z" fill="#CFE4E6"/>
</svg>
